<svg version="1.1" id="Layer_1" xmlns="http://www.w3.org/2000/svg" xmlns:xlink="http://www.w3.org/1999/xlink" x="0px" y="0px"
	 width="100%" viewBox="0 0 2000 1500" enable-background="new 0 0 2000 1500" xml:space="preserve">
<path fill="#FFFFFF" opacity="1.000000" stroke="none" 
	d="
M1230.000000,1501.000000 
	C820.000122,1501.000000 410.500244,1501.000000 1.000275,1501.000000 
	C1.000183,1001.000244 1.000183,501.000549 1.000092,1.000610 
	C667.666199,1.000407 1334.332397,1.000407 2000.998901,1.000203 
	C2000.999268,500.999390 2000.999268,1000.998779 2000.999634,1500.999023 
	C1744.166626,1501.000000 1487.333374,1501.000000 1230.000000,1501.000000 
M580.131470,562.091553 
	C518.305420,562.075867 456.479340,562.094421 394.653351,562.021118 
	C378.566467,562.002075 366.239807,568.416565 357.349030,582.001038 
	C330.272552,623.372131 303.006073,664.618958 275.784851,705.895142 
	C270.428894,714.016418 265.727509,722.177246 265.758728,732.494141 
	C265.921509,786.320129 265.824493,840.146851 265.877014,893.973267 
	C265.879730,896.774170 266.059814,899.672180 266.777222,902.359436 
	C271.758972,921.019165 286.968140,932.751099 306.928406,932.800537 
	C363.587616,932.940918 420.247498,932.915771 476.906769,932.790833 
	C487.483734,932.767517 497.482391,930.099609 505.238892,922.373535 
	C539.596313,888.151062 573.892944,853.867004 608.078552,819.472961 
	C614.669128,812.842285 617.937500,804.372803 617.952820,795.062439 
	C618.060120,730.070984 618.144775,665.078430 617.776550,600.088867 
	C617.742554,594.078308 615.425476,587.597229 612.562683,582.183838 
	C606.005859,569.784912 594.742798,563.810059 580.131470,562.091553 
M750.129822,786.355164 
	C766.769531,828.455444 783.379517,870.567505 800.082581,912.642639 
	C802.458252,918.627014 804.993347,924.585938 807.988464,930.275696 
	C810.877197,935.763184 815.050598,935.668091 818.130859,930.355469 
	C819.618469,927.789795 820.927734,925.089600 822.025391,922.333862 
	C833.221924,894.225159 844.224426,866.038452 855.538696,837.977417 
	C881.440674,773.737000 907.482727,709.553101 933.478210,645.350403 
	C937.743774,634.815674 935.492188,631.292725 924.134705,631.218689 
	C910.302368,631.128601 896.468689,631.260193 882.636475,631.165222 
	C877.303528,631.128662 873.754333,633.350464 872.022278,638.414429 
	C871.327393,640.445801 870.602661,642.467041 869.925110,644.504028 
	C852.883911,695.737854 835.854187,746.975525 818.783875,798.199646 
	C818.084045,800.299927 817.008606,802.275146 815.526978,805.621033 
	C813.949219,802.381348 812.785583,800.465454 812.044922,798.398010 
	C804.298096,776.773987 796.635254,755.119812 788.917358,733.485352 
	C778.034790,702.979980 767.148865,672.475647 756.213806,641.989014 
	C752.678162,632.131775 751.259033,631.197815 741.088013,631.197205 
	C728.255127,631.196472 715.421936,631.153381 702.589600,631.235474 
	C700.116089,631.251343 697.630066,631.664124 695.177673,632.064819 
	C691.519104,632.662659 690.214783,635.217590 690.552185,638.570679 
	C690.747864,640.515076 691.399292,642.468201 692.145813,644.294739 
	C711.401550,691.404480 730.696838,738.498108 750.129822,786.355164 
M1541.292847,930.878174 
	C1558.022705,925.513977 1572.495972,916.083984 1587.016602,905.420044 
	C1587.894409,911.153809 1587.608887,916.560669 1587.967163,921.924500 
	C1588.408081,928.530396 1590.840576,930.730347 1597.485718,930.818237 
	C1608.144165,930.959290 1618.807007,930.959473 1629.465454,930.820068 
	C1636.361450,930.729919 1639.077271,927.879272 1638.973999,920.928345 
	C1638.724121,904.110291 1638.130249,887.295349 1638.044067,870.477356 
	C1637.835571,829.838562 1637.838257,789.198792 1637.755005,748.559387 
	C1637.752930,747.560242 1637.816284,746.554077 1637.722900,745.563110 
	C1637.145996,739.444214 1634.567871,737.041565 1628.389160,737.011292 
	C1618.895020,736.964783 1609.400513,736.988586 1599.906250,737.001892 
	C1592.507568,737.012329 1589.873169,739.407715 1589.024536,746.909729 
	C1588.606567,750.603943 1588.256348,754.305847 1587.744507,759.276550 
	C1584.779785,757.187805 1582.879272,756.021606 1581.172119,754.619995 
	C1558.661377,736.137146 1533.125977,728.071350 1504.197266,733.207642 
	C1475.831543,738.243958 1456.029541,755.104675 1442.911865,780.149231 
	C1430.595337,803.664185 1427.016357,828.894958 1430.278442,855.015625 
	C1432.652588,874.026428 1438.674194,891.916321 1451.318726,906.754761 
	C1475.432495,935.052246 1506.269043,939.431702 1541.292847,930.878174 
M1084.810425,835.225098 
	C1101.240112,829.198669 1117.726440,823.320679 1134.073975,817.078979 
	C1141.529419,814.232422 1142.594727,811.714294 1140.387695,803.950989 
	C1138.493896,797.289612 1136.624146,790.562744 1133.970215,784.186829 
	C1124.902954,762.403503 1111.136475,744.795227 1088.207153,736.347656 
	C1072.808594,730.674622 1056.796509,729.895386 1040.550903,731.863403 
	C1008.789978,735.710876 984.945129,751.588318 969.328186,779.313110 
	C955.439087,803.970520 953.499451,830.618286 958.027771,858.069702 
	C964.228455,895.659607 993.919434,925.757080 1031.156860,933.082520 
	C1054.170532,937.609680 1076.732788,936.019409 1099.242432,930.469421 
	C1111.850708,927.360718 1123.848877,922.745789 1134.714966,915.515808 
	C1140.472046,911.685181 1141.348877,909.063660 1138.823486,902.995422 
	C1136.664795,897.808289 1134.343262,892.680603 1131.885620,887.627930 
	C1126.303101,876.151306 1124.813232,875.748901 1113.435791,881.807983 
	C1095.866333,891.164734 1077.672852,897.625061 1057.256958,894.047058 
	C1039.273682,890.895447 1024.483643,882.911926 1014.623291,866.927673 
	C1012.468628,863.434814 1012.860596,861.903259 1016.759033,860.483765 
	C1039.251343,852.293640 1061.678345,843.924377 1084.810425,835.225098 
M1308.568848,768.107605 
	C1304.955811,780.333252 1304.884155,792.713074 1307.562134,805.053467 
	C1311.420044,822.830383 1323.015747,834.773315 1338.017822,843.850708 
	C1344.817627,847.965088 1351.956299,851.518738 1358.764893,855.619568 
	C1365.303345,859.557739 1368.376831,868.190186 1366.696289,876.657654 
	C1365.010254,885.151855 1361.078735,889.478638 1352.842407,890.715820 
	C1348.963989,891.298401 1344.652466,891.496521 1340.980469,890.393433 
	C1334.878052,888.560059 1329.040894,885.730164 1323.258301,882.971191 
	C1314.012085,878.559753 1310.949829,879.707520 1307.976807,889.412537 
	C1306.187256,895.254333 1304.843872,901.244324 1302.825562,907.001404 
	C1300.761108,912.890076 1302.302246,917.138733 1307.061890,920.955688 
	C1323.506470,934.143250 1342.428345,937.818359 1362.778687,935.379211 
	C1378.689453,933.472168 1391.007690,925.421204 1399.725952,911.904358 
	C1410.338135,895.451355 1412.476196,877.340332 1410.388184,858.364136 
	C1408.919434,845.015137 1403.166138,833.796265 1392.680176,825.530762 
	C1386.869629,820.950500 1380.033569,817.681946 1373.720703,813.724915 
	C1368.115723,810.211731 1362.111084,807.123474 1357.156494,802.837769 
	C1350.639404,797.200439 1349.440063,789.345459 1352.139160,781.382568 
	C1354.630859,774.031311 1360.731689,770.885254 1368.131592,769.808105 
	C1374.849609,768.830200 1380.805542,771.365417 1386.959961,773.347900 
	C1393.927979,775.592651 1396.659546,774.105774 1399.152100,767.275452 
	C1400.340210,764.019714 1401.321533,760.688171 1402.384888,757.387207 
	C1405.982910,746.217224 1404.151733,742.071838 1392.954590,738.073914 
	C1379.834106,733.389160 1366.279419,731.742249 1352.327026,733.009033 
	C1332.254150,734.831543 1314.555298,748.679077 1308.568848,768.107605 
M1296.001221,742.834167 
	C1296.151978,739.148193 1294.506470,736.561035 1290.852295,736.008789 
	C1273.742676,733.423218 1257.354858,734.472107 1243.267334,746.169983 
	C1235.075317,752.972351 1228.957153,761.390747 1223.979126,770.722351 
	C1223.138794,772.297668 1222.016357,773.722473 1221.024292,775.216858 
	C1218.861206,765.187012 1217.850952,755.614563 1217.030518,746.025818 
	C1216.478638,739.575867 1214.050537,737.046509 1207.684326,737.010864 
	C1199.018433,736.962402 1190.351807,736.995239 1181.685547,736.999268 
	C1172.744141,737.003357 1170.621094,739.079956 1170.586792,748.220215 
	C1170.372070,805.550293 1170.184082,862.880554 1170.006958,920.210754 
	C1169.982178,928.245056 1172.609253,930.815063 1180.846436,930.851990 
	C1190.512573,930.895386 1200.179199,930.894531 1209.845337,930.852661 
	C1218.243530,930.816284 1220.922607,928.152710 1220.930908,919.822449 
	C1220.953491,897.156677 1221.056885,874.490112 1220.891968,851.825562 
	C1220.803467,839.660706 1223.161133,828.012756 1228.161499,817.057251 
	C1235.079590,801.899841 1244.838135,789.206848 1262.282227,785.593201 
	C1268.187622,784.369873 1274.505981,784.987061 1280.633179,785.040039 
	C1284.940674,785.077271 1287.963501,783.144104 1288.836182,779.207031 
	C1291.448486,767.423340 1293.642090,755.546814 1296.001221,742.834167 
M1692.551514,736.997070 
	C1678.206665,736.997192 1677.346802,737.875916 1677.322998,752.201660 
	C1677.230469,808.007507 1677.119873,863.813354 1677.027710,919.619202 
	C1677.013306,928.351868 1679.503296,930.827942 1688.320557,930.856934 
	C1697.815796,930.888184 1707.311279,930.875366 1716.806641,930.860779 
	C1726.164795,930.846375 1728.746826,928.342407 1728.711426,919.096802 
	C1728.491089,861.458923 1728.246826,803.821289 1727.996826,746.183533 
	C1727.967896,739.518127 1725.395020,737.032227 1718.523682,737.005066 
	C1710.194580,736.972107 1701.865112,736.997131 1692.551514,736.997070 
M1703.578369,694.214233 
	C1716.896851,694.508057 1726.260986,688.040588 1731.536255,676.333618 
	C1736.484741,665.351746 1734.401001,654.792358 1726.250244,645.852295 
	C1717.592407,636.356140 1706.723755,633.476624 1694.508789,637.114075 
	C1681.776123,640.905762 1672.667236,654.733032 1674.255493,666.924805 
	C1676.233521,682.108765 1687.841919,693.236877 1703.578369,694.214233 
z"/>
<path fill="#A695FF" opacity="1.000000" stroke="none" 
	d="
M580.588379,562.111267 
	C594.742798,563.810059 606.005859,569.784912 612.562683,582.183838 
	C615.425476,587.597229 617.742554,594.078308 617.776550,600.088867 
	C618.144775,665.078430 618.060120,730.070984 617.952820,795.062439 
	C617.937500,804.372803 614.669128,812.842285 608.078552,819.472961 
	C573.892944,853.867004 539.596313,888.151062 505.238892,922.373535 
	C497.482391,930.099609 487.483734,932.767517 476.906769,932.790833 
	C420.247498,932.915771 363.587616,932.940918 306.928406,932.800537 
	C286.968140,932.751099 271.758972,921.019165 266.777222,902.359436 
	C266.059814,899.672180 265.879730,896.774170 265.877014,893.973267 
	C265.824493,840.146851 265.921509,786.320129 265.758728,732.494141 
	C265.727509,722.177246 270.428894,714.016418 275.784851,705.895142 
	C303.006073,664.618958 330.272552,623.372131 357.349030,582.001038 
	C366.239807,568.416565 378.566467,562.002075 394.653351,562.021118 
	C456.479340,562.094421 518.305420,562.075867 580.588379,562.111267 
M415.921051,613.669800 
	C417.372894,621.839355 418.780853,630.017029 420.284302,638.177063 
	C426.538757,672.123657 432.849701,706.059937 439.052368,740.015991 
	C439.680450,743.454285 440.858704,744.988647 444.813782,744.960266 
	C472.638855,744.760010 500.466034,744.858398 528.292542,744.840942 
	C529.735413,744.840027 531.178101,744.652649 532.806152,744.539185 
	C540.976318,699.012085 549.081726,653.845886 557.257568,608.287476 
	C536.458191,608.287476 516.381775,608.287476 496.069153,608.287476 
	C495.721252,610.485901 495.232117,612.431396 495.131012,614.396912 
	C494.344788,629.676758 493.700684,644.964233 492.871979,660.241638 
	C492.422119,668.534302 491.755524,676.817261 491.020874,685.089844 
	C490.932465,686.085449 489.803436,686.988525 489.156677,687.934448 
	C488.409027,687.089844 487.234467,686.348572 486.999725,685.379700 
	C486.456360,683.136658 486.250763,680.790344 486.113373,678.473755 
	C485.010834,659.886353 483.990784,641.293945 482.862518,622.708191 
	C482.573578,617.948608 481.988922,613.207031 481.522034,608.265503 
	C459.334930,608.265503 437.418671,608.265503 414.937500,608.265503 
	C415.263397,610.017395 415.524384,611.420349 415.921051,613.669800 
z"/>
<path fill="#010101" opacity="1.000000" stroke="none" 
	d="
M750.057556,785.974854 
	C730.696838,738.498108 711.401550,691.404480 692.145813,644.294739 
	C691.399292,642.468201 690.747864,640.515076 690.552185,638.570679 
	C690.214783,635.217590 691.519104,632.662659 695.177673,632.064819 
	C697.630066,631.664124 700.116089,631.251343 702.589600,631.235474 
	C715.421936,631.153381 728.255127,631.196472 741.088013,631.197205 
	C751.259033,631.197815 752.678162,632.131775 756.213806,641.989014 
	C767.148865,672.475647 778.034790,702.979980 788.917358,733.485352 
	C796.635254,755.119812 804.298096,776.773987 812.044922,798.398010 
	C812.785583,800.465454 813.949219,802.381348 815.526978,805.621033 
	C817.008606,802.275146 818.084045,800.299927 818.783875,798.199646 
	C835.854187,746.975525 852.883911,695.737854 869.925110,644.504028 
	C870.602661,642.467041 871.327393,640.445801 872.022278,638.414429 
	C873.754333,633.350464 877.303528,631.128662 882.636475,631.165222 
	C896.468689,631.260193 910.302368,631.128601 924.134705,631.218689 
	C935.492188,631.292725 937.743774,634.815674 933.478210,645.350403 
	C907.482727,709.553101 881.440674,773.737000 855.538696,837.977417 
	C844.224426,866.038452 833.221924,894.225159 822.025391,922.333862 
	C820.927734,925.089600 819.618469,927.789795 818.130859,930.355469 
	C815.050598,935.668091 810.877197,935.763184 807.988464,930.275696 
	C804.993347,924.585938 802.458252,918.627014 800.082581,912.642639 
	C783.379517,870.567505 766.769531,828.455444 750.057556,785.974854 
z"/>
<path fill="#010101" opacity="1.000000" stroke="none" 
	d="
M1540.888062,930.936035 
	C1506.269043,939.431702 1475.432495,935.052246 1451.318726,906.754761 
	C1438.674194,891.916321 1432.652588,874.026428 1430.278442,855.015625 
	C1427.016357,828.894958 1430.595337,803.664185 1442.911865,780.149231 
	C1456.029541,755.104675 1475.831543,738.243958 1504.197266,733.207642 
	C1533.125977,728.071350 1558.661377,736.137146 1581.172119,754.619995 
	C1582.879272,756.021606 1584.779785,757.187805 1587.744507,759.276550 
	C1588.256348,754.305847 1588.606567,750.603943 1589.024536,746.909729 
	C1589.873169,739.407715 1592.507568,737.012329 1599.906250,737.001892 
	C1609.400513,736.988586 1618.895020,736.964783 1628.389160,737.011292 
	C1634.567871,737.041565 1637.145996,739.444214 1637.722900,745.563110 
	C1637.816284,746.554077 1637.752930,747.560242 1637.755005,748.559387 
	C1637.838257,789.198792 1637.835571,829.838562 1638.044067,870.477356 
	C1638.130249,887.295349 1638.724121,904.110291 1638.973999,920.928345 
	C1639.077271,927.879272 1636.361450,930.729919 1629.465454,930.820068 
	C1618.807007,930.959473 1608.144165,930.959290 1597.485718,930.818237 
	C1590.840576,930.730347 1588.408081,928.530396 1587.967163,921.924500 
	C1587.608887,916.560669 1587.894409,911.153809 1587.016602,905.420044 
	C1572.495972,916.083984 1558.022705,925.513977 1540.888062,930.936035 
M1587.004761,831.500000 
	C1587.022705,825.501343 1587.218994,819.495605 1586.978882,813.507263 
	C1586.869141,810.772949 1586.254883,807.934937 1585.263794,805.378784 
	C1574.996948,778.903076 1541.359375,769.613342 1518.215454,776.707642 
	C1495.671265,783.617920 1480.893555,805.491028 1480.945923,831.574158 
	C1481.033447,875.140869 1523.858765,902.159485 1562.880493,882.823120 
	C1578.292847,875.185852 1588.035156,862.999695 1587.056763,844.495789 
	C1586.845825,840.507446 1587.013306,836.499146 1587.004761,831.500000 
z"/>
<path fill="#010101" opacity="1.000000" stroke="none" 
	d="
M1084.468994,835.420410 
	C1061.678345,843.924377 1039.251343,852.293640 1016.759033,860.483765 
	C1012.860596,861.903259 1012.468628,863.434814 1014.623291,866.927673 
	C1024.483643,882.911926 1039.273682,890.895447 1057.256958,894.047058 
	C1077.672852,897.625061 1095.866333,891.164734 1113.435791,881.807983 
	C1124.813232,875.748901 1126.303101,876.151306 1131.885620,887.627930 
	C1134.343262,892.680603 1136.664795,897.808289 1138.823486,902.995422 
	C1141.348877,909.063660 1140.472046,911.685181 1134.714966,915.515808 
	C1123.848877,922.745789 1111.850708,927.360718 1099.242432,930.469421 
	C1076.732788,936.019409 1054.170532,937.609680 1031.156860,933.082520 
	C993.919434,925.757080 964.228455,895.659607 958.027771,858.069702 
	C953.499451,830.618286 955.439087,803.970520 969.328186,779.313110 
	C984.945129,751.588318 1008.789978,735.710876 1040.550903,731.863403 
	C1056.796509,729.895386 1072.808594,730.674622 1088.207153,736.347656 
	C1111.136475,744.795227 1124.902954,762.403503 1133.970215,784.186829 
	C1136.624146,790.562744 1138.493896,797.289612 1140.387695,803.950989 
	C1142.594727,811.714294 1141.529419,814.232422 1134.073975,817.078979 
	C1117.726440,823.320679 1101.240112,829.198669 1084.468994,835.420410 
M1049.703613,772.984802 
	C1023.817993,774.735596 1001.802795,804.225281 1006.526428,831.286377 
	C1034.760864,821.475403 1062.936646,811.684753 1091.458862,801.773743 
	C1082.299561,785.149658 1071.654907,771.711853 1049.703613,772.984802 
z"/>
<path fill="#010101" opacity="1.000000" stroke="none" 
	d="
M1308.728760,767.738892 
	C1314.555298,748.679077 1332.254150,734.831543 1352.327026,733.009033 
	C1366.279419,731.742249 1379.834106,733.389160 1392.954590,738.073914 
	C1404.151733,742.071838 1405.982910,746.217224 1402.384888,757.387207 
	C1401.321533,760.688171 1400.340210,764.019714 1399.152100,767.275452 
	C1396.659546,774.105774 1393.927979,775.592651 1386.959961,773.347900 
	C1380.805542,771.365417 1374.849609,768.830200 1368.131592,769.808105 
	C1360.731689,770.885254 1354.630859,774.031311 1352.139160,781.382568 
	C1349.440063,789.345459 1350.639404,797.200439 1357.156494,802.837769 
	C1362.111084,807.123474 1368.115723,810.211731 1373.720703,813.724915 
	C1380.033569,817.681946 1386.869629,820.950500 1392.680176,825.530762 
	C1403.166138,833.796265 1408.919434,845.015137 1410.388184,858.364136 
	C1412.476196,877.340332 1410.338135,895.451355 1399.725952,911.904358 
	C1391.007690,925.421204 1378.689453,933.472168 1362.778687,935.379211 
	C1342.428345,937.818359 1323.506470,934.143250 1307.061890,920.955688 
	C1302.302246,917.138733 1300.761108,912.890076 1302.825562,907.001404 
	C1304.843872,901.244324 1306.187256,895.254333 1307.976807,889.412537 
	C1310.949829,879.707520 1314.012085,878.559753 1323.258301,882.971191 
	C1329.040894,885.730164 1334.878052,888.560059 1340.980469,890.393433 
	C1344.652466,891.496521 1348.963989,891.298401 1352.842407,890.715820 
	C1361.078735,889.478638 1365.010254,885.151855 1366.696289,876.657654 
	C1368.376831,868.190186 1365.303345,859.557739 1358.764893,855.619568 
	C1351.956299,851.518738 1344.817627,847.965088 1338.017822,843.850708 
	C1323.015747,834.773315 1311.420044,822.830383 1307.562134,805.053467 
	C1304.884155,792.713074 1304.955811,780.333252 1308.728760,767.738892 
z"/>
<path fill="#010101" opacity="1.000000" stroke="none" 
	d="
M1296.000244,743.270386 
	C1293.642090,755.546814 1291.448486,767.423340 1288.836182,779.207031 
	C1287.963501,783.144104 1284.940674,785.077271 1280.633179,785.040039 
	C1274.505981,784.987061 1268.187622,784.369873 1262.282227,785.593201 
	C1244.838135,789.206848 1235.079590,801.899841 1228.161499,817.057251 
	C1223.161133,828.012756 1220.803467,839.660706 1220.891968,851.825562 
	C1221.056885,874.490112 1220.953491,897.156677 1220.930908,919.822449 
	C1220.922607,928.152710 1218.243530,930.816284 1209.845337,930.852661 
	C1200.179199,930.894531 1190.512573,930.895386 1180.846436,930.851990 
	C1172.609253,930.815063 1169.982178,928.245056 1170.006958,920.210754 
	C1170.184082,862.880554 1170.372070,805.550293 1170.586792,748.220215 
	C1170.621094,739.079956 1172.744141,737.003357 1181.685547,736.999268 
	C1190.351807,736.995239 1199.018433,736.962402 1207.684326,737.010864 
	C1214.050537,737.046509 1216.478638,739.575867 1217.030518,746.025818 
	C1217.850952,755.614563 1218.861206,765.187012 1221.024292,775.216858 
	C1222.016357,773.722473 1223.138794,772.297668 1223.979126,770.722351 
	C1228.957153,761.390747 1235.075317,752.972351 1243.267334,746.169983 
	C1257.354858,734.472107 1273.742676,733.423218 1290.852295,736.008789 
	C1294.506470,736.561035 1296.151978,739.148193 1296.000244,743.270386 
z"/>
<path fill="#020202" opacity="1.000000" stroke="none" 
	d="
M1693.043701,736.997070 
	C1701.865112,736.997131 1710.194580,736.972107 1718.523682,737.005066 
	C1725.395020,737.032227 1727.967896,739.518127 1727.996826,746.183533 
	C1728.246826,803.821289 1728.491089,861.458923 1728.711426,919.096802 
	C1728.746826,928.342407 1726.164795,930.846375 1716.806641,930.860779 
	C1707.311279,930.875366 1697.815796,930.888184 1688.320557,930.856934 
	C1679.503296,930.827942 1677.013306,928.351868 1677.027710,919.619202 
	C1677.119873,863.813354 1677.230469,808.007507 1677.322998,752.201660 
	C1677.346802,737.875916 1678.206665,736.997192 1693.043701,736.997070 
z"/>
<path fill="#020202" opacity="1.000000" stroke="none" 
	d="
M1703.117188,694.182251 
	C1687.841919,693.236877 1676.233521,682.108765 1674.255493,666.924805 
	C1672.667236,654.733032 1681.776123,640.905762 1694.508789,637.114075 
	C1706.723755,633.476624 1717.592407,636.356140 1726.250244,645.852295 
	C1734.401001,654.792358 1736.484741,665.351746 1731.536255,676.333618 
	C1726.260986,688.040588 1716.896851,694.508057 1703.117188,694.182251 
z"/>
<path fill="#FEFEFF" opacity="1.000000" stroke="none" 
	d="
M415.853210,613.246582 
	C415.524384,611.420349 415.263397,610.017395 414.937500,608.265503 
	C437.418671,608.265503 459.334930,608.265503 481.522034,608.265503 
	C481.988922,613.207031 482.573578,617.948608 482.862518,622.708191 
	C483.990784,641.293945 485.010834,659.886353 486.113373,678.473755 
	C486.250763,680.790344 486.456360,683.136658 486.999725,685.379700 
	C487.234467,686.348572 488.409027,687.089844 489.156677,687.934448 
	C489.803436,686.988525 490.932465,686.085449 491.020874,685.089844 
	C491.755524,676.817261 492.422119,668.534302 492.871979,660.241638 
	C493.700684,644.964233 494.344788,629.676758 495.131012,614.396912 
	C495.232117,612.431396 495.721252,610.485901 496.069153,608.287476 
	C516.381775,608.287476 536.458191,608.287476 557.257568,608.287476 
	C549.081726,653.845886 540.976318,699.012085 532.806152,744.539185 
	C531.178101,744.652649 529.735413,744.840027 528.292542,744.840942 
	C500.466034,744.858398 472.638855,744.760010 444.813782,744.960266 
	C440.858704,744.988647 439.680450,743.454285 439.052368,740.015991 
	C432.849701,706.059937 426.538757,672.123657 420.284302,638.177063 
	C418.780853,630.017029 417.372894,621.839355 415.853210,613.246582 
z"/>
<path fill="#FEFEFE" opacity="1.000000" stroke="none" 
	d="
M1587.005615,832.000000 
	C1587.013306,836.499146 1586.845825,840.507446 1587.056763,844.495789 
	C1588.035156,862.999695 1578.292847,875.185852 1562.880493,882.823120 
	C1523.858765,902.159485 1481.033447,875.140869 1480.945923,831.574158 
	C1480.893555,805.491028 1495.671265,783.617920 1518.215454,776.707642 
	C1541.359375,769.613342 1574.996948,778.903076 1585.263794,805.378784 
	C1586.254883,807.934937 1586.869141,810.772949 1586.978882,813.507263 
	C1587.218994,819.495605 1587.022705,825.501343 1587.005615,832.000000 
z"/>
<path fill="#FDFDFD" opacity="1.000000" stroke="none" 
	d="
M1050.169434,772.982544 
	C1071.654907,771.711853 1082.299561,785.149658 1091.458862,801.773743 
	C1062.936646,811.684753 1034.760864,821.475403 1006.526428,831.286377 
	C1001.802795,804.225281 1023.817993,774.735596 1050.169434,772.982544 
z"/>
</svg>